<mxfile host="app.diagrams.net" modified="2024-03-10T09:49:34.825Z" agent="Mozilla/5.0 (Windows NT 10.0; Win64; x64) AppleWebKit/537.36 (KHTML, like Gecko) Chrome/122.0.0.0 Safari/537.36 Edg/122.0.0.0" etag="QlY2qq2dMSW5F-tJsNC_" version="21.7.1" type="github">
  <diagram name="第 1 页" id="ewmNJptE8d74aeXKIN9-">
    <mxGraphModel dx="1631" dy="2062" grid="1" gridSize="10" guides="1" tooltips="1" connect="1" arrows="1" fold="1" page="1" pageScale="1" pageWidth="827" pageHeight="1169" math="0" shadow="0">
      <root>
        <mxCell id="0" />
        <mxCell id="1" parent="0" />
        <mxCell id="TKt5UesDh4hAwmA9AJoG-1" value="ProtocolData" style="swimlane;fontStyle=1;align=center;verticalAlign=top;childLayout=stackLayout;horizontal=1;startSize=26;horizontalStack=0;resizeParent=1;resizeParentMax=0;resizeLast=0;collapsible=1;marginBottom=0;whiteSpace=wrap;html=1;" parent="1" vertex="1">
          <mxGeometry x="140" y="416" width="270" height="500" as="geometry" />
        </mxCell>
        <mxCell id="TKt5UesDh4hAwmA9AJoG-2" value="int upperDataPackLen;&lt;div style=&quot;resize: none; outline: none; font-size: 13px; color: rgb(50, 50, 50); font-family: &amp;quot;Microsoft YaHei&amp;quot;, 微软雅黑, Arial;&quot;&gt;int ack;//记录下一次期望得到的ack&lt;/div&gt;&lt;div style=&quot;resize: none; outline: none; font-size: 13px; color: rgb(50, 50, 50); font-family: &amp;quot;Microsoft YaHei&amp;quot;, 微软雅黑, Arial;&quot;&gt;int seq;//记录当前数据包的序号&lt;/div&gt;&lt;div style=&quot;resize: none; outline: none; font-size: 13px; color: rgb(50, 50, 50); font-family: &amp;quot;Microsoft YaHei&amp;quot;, 微软雅黑, Arial;&quot;&gt;long sock;&lt;/div&gt;&lt;div style=&quot;resize: none; outline: none; font-size: 13px; color: rgb(50, 50, 50); font-family: &amp;quot;Microsoft YaHei&amp;quot;, 微软雅黑, Arial;&quot;&gt;bool keepAlive;//当前连接是否保活&lt;/div&gt;&lt;div style=&quot;resize: none; outline: none; font-size: 13px; color: rgb(50, 50, 50); font-family: &amp;quot;Microsoft YaHei&amp;quot;, 微软雅黑, Arial;&quot;&gt;char* inBuffer[4096];&lt;/div&gt;&lt;div style=&quot;resize: none; outline: none; font-size: 13px; color: rgb(50, 50, 50); font-family: &amp;quot;Microsoft YaHei&amp;quot;, 微软雅黑, Arial;&quot;&gt;char* outBuffer[4096];&lt;/div&gt;&lt;div style=&quot;resize: none; outline: none; font-size: 13px; color: rgb(50, 50, 50); font-family: &amp;quot;Microsoft YaHei&amp;quot;, 微软雅黑, Arial;&quot;&gt;Channel* channel;//&lt;/div&gt;&lt;div style=&quot;resize: none; outline: none; font-size: 13px; color: rgb(50, 50, 50); font-family: &amp;quot;Microsoft YaHei&amp;quot;, 微软雅黑, Arial;&quot;&gt;ServiceMediator* mediator;&lt;br&gt;&lt;/div&gt;" style="text;strokeColor=none;fillColor=none;align=left;verticalAlign=top;spacingLeft=4;spacingRight=4;overflow=hidden;rotatable=0;points=[[0,0.5],[1,0.5]];portConstraint=eastwest;whiteSpace=wrap;html=1;" parent="TKt5UesDh4hAwmA9AJoG-1" vertex="1">
          <mxGeometry y="26" width="270" height="264" as="geometry" />
        </mxCell>
        <mxCell id="TKt5UesDh4hAwmA9AJoG-3" value="" style="line;strokeWidth=1;fillColor=none;align=left;verticalAlign=middle;spacingTop=-1;spacingLeft=3;spacingRight=3;rotatable=0;labelPosition=right;points=[];portConstraint=eastwest;strokeColor=inherit;" parent="TKt5UesDh4hAwmA9AJoG-1" vertex="1">
          <mxGeometry y="290" width="270" height="8" as="geometry" />
        </mxCell>
        <mxCell id="TKt5UesDh4hAwmA9AJoG-4" value="void handleRead();//读取包头和包体&lt;div style=&quot;resize: none; outline: none; font-size: 13px; color: rgb(50, 50, 50); font-family: &amp;quot;Microsoft YaHei&amp;quot;, 微软雅黑, Arial;&quot;&gt;void handleWrite();//将outbuffer中的数据进行封装后发给sock&lt;/div&gt;&lt;div style=&quot;resize: none; outline: none; font-size: 13px; color: rgb(50, 50, 50); font-family: &amp;quot;Microsoft YaHei&amp;quot;, 微软雅黑, Arial;&quot;&gt;void parseProtocol();//解析包头，将包体数据写入outBuffer;并投递业务处理任务到线程池中&lt;/div&gt;&lt;div style=&quot;resize: none; outline: none; font-size: 13px; color: rgb(50, 50, 50); font-family: &amp;quot;Microsoft YaHei&amp;quot;, 微软雅黑, Arial;&quot;&gt;void&amp;nbsp;handleNewConnecttion();//建立新链接&lt;/div&gt;&lt;div style=&quot;resize: none; outline: none; font-size: 13px; color: rgb(50, 50, 50); font-family: &amp;quot;Microsoft YaHei&amp;quot;, 微软雅黑, Arial;&quot;&gt;Channel* getChannel();&lt;/div&gt;&lt;div style=&quot;resize: none; outline: none; font-size: 13px; color: rgb(50, 50, 50); font-family: &amp;quot;Microsoft YaHei&amp;quot;, 微软雅黑, Arial;&quot;&gt;void setMediator(&lt;/div&gt;ServiceMediator*&amp;nbsp;);" style="text;strokeColor=none;fillColor=none;align=left;verticalAlign=top;spacingLeft=4;spacingRight=4;overflow=hidden;rotatable=0;points=[[0,0.5],[1,0.5]];portConstraint=eastwest;whiteSpace=wrap;html=1;" parent="TKt5UesDh4hAwmA9AJoG-1" vertex="1">
          <mxGeometry y="298" width="270" height="202" as="geometry" />
        </mxCell>
        <mxCell id="L9cpO9jpiSc21Cesm8Ux-2" style="edgeStyle=orthogonalEdgeStyle;rounded=0;orthogonalLoop=1;jettySize=auto;html=1;exitX=1;exitY=0.5;exitDx=0;exitDy=0;" parent="TKt5UesDh4hAwmA9AJoG-1" source="TKt5UesDh4hAwmA9AJoG-2" target="TKt5UesDh4hAwmA9AJoG-2" edge="1">
          <mxGeometry relative="1" as="geometry" />
        </mxCell>
        <mxCell id="TKt5UesDh4hAwmA9AJoG-5" value="Channel" style="swimlane;fontStyle=1;align=center;verticalAlign=top;childLayout=stackLayout;horizontal=1;startSize=26;horizontalStack=0;resizeParent=1;resizeParentMax=0;resizeLast=0;collapsible=1;marginBottom=0;whiteSpace=wrap;html=1;" parent="1" vertex="1">
          <mxGeometry x="413" y="-153" width="200" height="200" as="geometry" />
        </mxCell>
        <mxCell id="TKt5UesDh4hAwmA9AJoG-6" value="callback&amp;nbsp; readHandler;&lt;br&gt;callback writeHandler;&lt;br&gt;long clientFd;&lt;br&gt;ProtocolData* protocol;" style="text;strokeColor=none;fillColor=none;align=left;verticalAlign=top;spacingLeft=4;spacingRight=4;overflow=hidden;rotatable=0;points=[[0,0.5],[1,0.5]];portConstraint=eastwest;whiteSpace=wrap;html=1;" parent="TKt5UesDh4hAwmA9AJoG-5" vertex="1">
          <mxGeometry y="26" width="200" height="64" as="geometry" />
        </mxCell>
        <mxCell id="TKt5UesDh4hAwmA9AJoG-7" value="" style="line;strokeWidth=1;fillColor=none;align=left;verticalAlign=middle;spacingTop=-1;spacingLeft=3;spacingRight=3;rotatable=0;labelPosition=right;points=[];portConstraint=eastwest;strokeColor=inherit;" parent="TKt5UesDh4hAwmA9AJoG-5" vertex="1">
          <mxGeometry y="90" width="200" height="8" as="geometry" />
        </mxCell>
        <mxCell id="TKt5UesDh4hAwmA9AJoG-8" value="void setReadHandler(callback);&lt;br&gt;callback getReadHandler();&lt;br&gt;void setWriteHandler(callback);&lt;br style=&quot;border-color: var(--border-color);&quot;&gt;callback getWriteHandler();&lt;br&gt;void handleRead();&lt;br&gt;void handleWrite();" style="text;strokeColor=none;fillColor=none;align=left;verticalAlign=top;spacingLeft=4;spacingRight=4;overflow=hidden;rotatable=0;points=[[0,0.5],[1,0.5]];portConstraint=eastwest;whiteSpace=wrap;html=1;" parent="TKt5UesDh4hAwmA9AJoG-5" vertex="1">
          <mxGeometry y="98" width="200" height="102" as="geometry" />
        </mxCell>
        <mxCell id="TKt5UesDh4hAwmA9AJoG-15" style="edgeStyle=orthogonalEdgeStyle;rounded=0;orthogonalLoop=1;jettySize=auto;html=1;exitX=0.5;exitY=1;exitDx=0;exitDy=0;entryX=0.5;entryY=0;entryDx=0;entryDy=0;" parent="1" source="TKt5UesDh4hAwmA9AJoG-9" target="TKt5UesDh4hAwmA9AJoG-5" edge="1">
          <mxGeometry relative="1" as="geometry" />
        </mxCell>
        <mxCell id="TKt5UesDh4hAwmA9AJoG-9" value="拥有socket读写事件处理器，socket；&lt;br&gt;负责读写事件的分流以及处理" style="rounded=1;whiteSpace=wrap;html=1;" parent="1" vertex="1">
          <mxGeometry x="453" y="-260" width="120" height="60" as="geometry" />
        </mxCell>
        <mxCell id="TKt5UesDh4hAwmA9AJoG-10" value="epoll" style="swimlane;fontStyle=1;align=center;verticalAlign=top;childLayout=stackLayout;horizontal=1;startSize=26;horizontalStack=0;resizeParent=1;resizeParentMax=0;resizeLast=0;collapsible=1;marginBottom=0;whiteSpace=wrap;html=1;" parent="1" vertex="1">
          <mxGeometry x="840" y="-404" width="270" height="170" as="geometry" />
        </mxCell>
        <mxCell id="TKt5UesDh4hAwmA9AJoG-11" value="unordered_map&amp;lt;long,Channel&amp;gt;fdToChannel;&lt;br&gt;long epollFd;&lt;br&gt;vector&amp;lt;epoll_event&amp;gt;events;" style="text;strokeColor=none;fillColor=none;align=left;verticalAlign=top;spacingLeft=4;spacingRight=4;overflow=hidden;rotatable=0;points=[[0,0.5],[1,0.5]];portConstraint=eastwest;whiteSpace=wrap;html=1;" parent="TKt5UesDh4hAwmA9AJoG-10" vertex="1">
          <mxGeometry y="26" width="270" height="64" as="geometry" />
        </mxCell>
        <mxCell id="TKt5UesDh4hAwmA9AJoG-12" value="" style="line;strokeWidth=1;fillColor=none;align=left;verticalAlign=middle;spacingTop=-1;spacingLeft=3;spacingRight=3;rotatable=0;labelPosition=right;points=[];portConstraint=eastwest;strokeColor=inherit;" parent="TKt5UesDh4hAwmA9AJoG-10" vertex="1">
          <mxGeometry y="90" width="270" height="8" as="geometry" />
        </mxCell>
        <mxCell id="TKt5UesDh4hAwmA9AJoG-13" value="void AddPoll(Channel c);&lt;br&gt;void DeletePoll(Channel c);&lt;br&gt;void ModPoll(Channel c);&lt;br&gt;vector&amp;lt;Channel*&amp;gt; GetTriggeredChannel();" style="text;strokeColor=none;fillColor=none;align=left;verticalAlign=top;spacingLeft=4;spacingRight=4;overflow=hidden;rotatable=0;points=[[0,0.5],[1,0.5]];portConstraint=eastwest;whiteSpace=wrap;html=1;" parent="TKt5UesDh4hAwmA9AJoG-10" vertex="1">
          <mxGeometry y="98" width="270" height="72" as="geometry" />
        </mxCell>
        <mxCell id="TKt5UesDh4hAwmA9AJoG-17" style="edgeStyle=orthogonalEdgeStyle;rounded=0;orthogonalLoop=1;jettySize=auto;html=1;entryX=0.5;entryY=0;entryDx=0;entryDy=0;" parent="1" source="TKt5UesDh4hAwmA9AJoG-16" target="TKt5UesDh4hAwmA9AJoG-10" edge="1">
          <mxGeometry relative="1" as="geometry" />
        </mxCell>
        <mxCell id="TKt5UesDh4hAwmA9AJoG-16" value="拥有已连接的socketfd，channel；&lt;br&gt;负责监听" style="rounded=1;whiteSpace=wrap;html=1;" parent="1" vertex="1">
          <mxGeometry x="915" y="-520" width="120" height="60" as="geometry" />
        </mxCell>
        <mxCell id="TKt5UesDh4hAwmA9AJoG-18" value="EventLoop" style="swimlane;fontStyle=1;align=center;verticalAlign=top;childLayout=stackLayout;horizontal=1;startSize=26;horizontalStack=0;resizeParent=1;resizeParentMax=0;resizeLast=0;collapsible=1;marginBottom=0;whiteSpace=wrap;html=1;" parent="1" vertex="1">
          <mxGeometry x="1420" y="-430" width="200" height="290" as="geometry" />
        </mxCell>
        <mxCell id="TKt5UesDh4hAwmA9AJoG-19" value="pthread_t pid;&lt;br&gt;vector&amp;lt;callback&amp;gt;pendingConnector&lt;br&gt;int wakeFd;&lt;br&gt;Channel* wakeChannel;&lt;br&gt;epoll* poller;&lt;br&gt;bool stop;&lt;br&gt;MutexLock* locker;" style="text;strokeColor=none;fillColor=none;align=left;verticalAlign=top;spacingLeft=4;spacingRight=4;overflow=hidden;rotatable=0;points=[[0,0.5],[1,0.5]];portConstraint=eastwest;whiteSpace=wrap;html=1;" parent="TKt5UesDh4hAwmA9AJoG-18" vertex="1">
          <mxGeometry y="26" width="200" height="154" as="geometry" />
        </mxCell>
        <mxCell id="TKt5UesDh4hAwmA9AJoG-20" value="" style="line;strokeWidth=1;fillColor=none;align=left;verticalAlign=middle;spacingTop=-1;spacingLeft=3;spacingRight=3;rotatable=0;labelPosition=right;points=[];portConstraint=eastwest;strokeColor=inherit;" parent="TKt5UesDh4hAwmA9AJoG-18" vertex="1">
          <mxGeometry y="180" width="200" height="8" as="geometry" />
        </mxCell>
        <mxCell id="TKt5UesDh4hAwmA9AJoG-21" value="void PushConnector(callback fun);&lt;br&gt;void WakeUp();&lt;br&gt;void ReadWakeFd();&lt;br&gt;void WriteWakeFd();&lt;br&gt;void Loop();" style="text;strokeColor=none;fillColor=none;align=left;verticalAlign=top;spacingLeft=4;spacingRight=4;overflow=hidden;rotatable=0;points=[[0,0.5],[1,0.5]];portConstraint=eastwest;whiteSpace=wrap;html=1;" parent="TKt5UesDh4hAwmA9AJoG-18" vertex="1">
          <mxGeometry y="188" width="200" height="102" as="geometry" />
        </mxCell>
        <mxCell id="TKt5UesDh4hAwmA9AJoG-22" style="edgeStyle=orthogonalEdgeStyle;rounded=0;orthogonalLoop=1;jettySize=auto;html=1;entryX=0.5;entryY=0;entryDx=0;entryDy=0;" parent="1" source="TKt5UesDh4hAwmA9AJoG-23" target="TKt5UesDh4hAwmA9AJoG-18" edge="1">
          <mxGeometry relative="1" as="geometry" />
        </mxCell>
        <mxCell id="TKt5UesDh4hAwmA9AJoG-23" value="事件循环封装，拥有epoll，channel；&lt;br&gt;负责循环监听并处理事件" style="rounded=1;whiteSpace=wrap;html=1;" parent="1" vertex="1">
          <mxGeometry x="1461" y="-520" width="120" height="60" as="geometry" />
        </mxCell>
        <mxCell id="TKt5UesDh4hAwmA9AJoG-24" value="EventLoopThread" style="swimlane;fontStyle=1;align=center;verticalAlign=top;childLayout=stackLayout;horizontal=1;startSize=26;horizontalStack=0;resizeParent=1;resizeParentMax=0;resizeLast=0;collapsible=1;marginBottom=0;whiteSpace=wrap;html=1;" parent="1" vertex="1">
          <mxGeometry x="1700" y="226" width="160" height="102" as="geometry" />
        </mxCell>
        <mxCell id="TKt5UesDh4hAwmA9AJoG-25" value="Thread* thread;&lt;br&gt;ServiceMediator* mediator" style="text;strokeColor=none;fillColor=none;align=left;verticalAlign=top;spacingLeft=4;spacingRight=4;overflow=hidden;rotatable=0;points=[[0,0.5],[1,0.5]];portConstraint=eastwest;whiteSpace=wrap;html=1;" parent="TKt5UesDh4hAwmA9AJoG-24" vertex="1">
          <mxGeometry y="26" width="160" height="42" as="geometry" />
        </mxCell>
        <mxCell id="TKt5UesDh4hAwmA9AJoG-26" value="" style="line;strokeWidth=1;fillColor=none;align=left;verticalAlign=middle;spacingTop=-1;spacingLeft=3;spacingRight=3;rotatable=0;labelPosition=right;points=[];portConstraint=eastwest;strokeColor=inherit;" parent="TKt5UesDh4hAwmA9AJoG-24" vertex="1">
          <mxGeometry y="68" width="160" height="8" as="geometry" />
        </mxCell>
        <mxCell id="TKt5UesDh4hAwmA9AJoG-27" value="void start();" style="text;strokeColor=none;fillColor=none;align=left;verticalAlign=top;spacingLeft=4;spacingRight=4;overflow=hidden;rotatable=0;points=[[0,0.5],[1,0.5]];portConstraint=eastwest;whiteSpace=wrap;html=1;" parent="TKt5UesDh4hAwmA9AJoG-24" vertex="1">
          <mxGeometry y="76" width="160" height="26" as="geometry" />
        </mxCell>
        <mxCell id="TKt5UesDh4hAwmA9AJoG-28" style="edgeStyle=orthogonalEdgeStyle;rounded=0;orthogonalLoop=1;jettySize=auto;html=1;entryX=0.5;entryY=0;entryDx=0;entryDy=0;" parent="1" source="TKt5UesDh4hAwmA9AJoG-29" target="TKt5UesDh4hAwmA9AJoG-24" edge="1">
          <mxGeometry relative="1" as="geometry" />
        </mxCell>
        <mxCell id="TKt5UesDh4hAwmA9AJoG-29" value="对eventloop的进一步封装，拥有eventloop；thread&lt;br&gt;负责绑定线程函数，启动控制线程" style="rounded=1;whiteSpace=wrap;html=1;" parent="1" vertex="1">
          <mxGeometry x="1720" y="100" width="120" height="80" as="geometry" />
        </mxCell>
        <mxCell id="TKt5UesDh4hAwmA9AJoG-30" value="EventLoopThreadPool" style="swimlane;fontStyle=1;align=center;verticalAlign=top;childLayout=stackLayout;horizontal=1;startSize=26;horizontalStack=0;resizeParent=1;resizeParentMax=0;resizeLast=0;collapsible=1;marginBottom=0;whiteSpace=wrap;html=1;" parent="1" vertex="1">
          <mxGeometry x="1940" y="1083" width="250" height="210" as="geometry" />
        </mxCell>
        <mxCell id="TKt5UesDh4hAwmA9AJoG-31" value="vector&amp;lt;EventLoopThread*&amp;gt; loopThreads;&lt;br&gt;bool started;//&lt;br&gt;int loopNum;&lt;br&gt;int nextLoopIndex;//记录下一次接受连接线程的下标" style="text;strokeColor=none;fillColor=none;align=left;verticalAlign=top;spacingLeft=4;spacingRight=4;overflow=hidden;rotatable=0;points=[[0,0.5],[1,0.5]];portConstraint=eastwest;whiteSpace=wrap;html=1;" parent="TKt5UesDh4hAwmA9AJoG-30" vertex="1">
          <mxGeometry y="26" width="250" height="84" as="geometry" />
        </mxCell>
        <mxCell id="TKt5UesDh4hAwmA9AJoG-32" value="" style="line;strokeWidth=1;fillColor=none;align=left;verticalAlign=middle;spacingTop=-1;spacingLeft=3;spacingRight=3;rotatable=0;labelPosition=right;points=[];portConstraint=eastwest;strokeColor=inherit;" parent="TKt5UesDh4hAwmA9AJoG-30" vertex="1">
          <mxGeometry y="110" width="250" height="8" as="geometry" />
        </mxCell>
        <mxCell id="TKt5UesDh4hAwmA9AJoG-33" value="EventLoopThread* getNextLoop();&lt;br&gt;void started();&lt;br&gt;void start();" style="text;strokeColor=none;fillColor=none;align=left;verticalAlign=top;spacingLeft=4;spacingRight=4;overflow=hidden;rotatable=0;points=[[0,0.5],[1,0.5]];portConstraint=eastwest;whiteSpace=wrap;html=1;" parent="TKt5UesDh4hAwmA9AJoG-30" vertex="1">
          <mxGeometry y="118" width="250" height="92" as="geometry" />
        </mxCell>
        <mxCell id="TKt5UesDh4hAwmA9AJoG-34" style="edgeStyle=orthogonalEdgeStyle;rounded=0;orthogonalLoop=1;jettySize=auto;html=1;entryX=0.5;entryY=0;entryDx=0;entryDy=0;" parent="1" source="TKt5UesDh4hAwmA9AJoG-35" target="TKt5UesDh4hAwmA9AJoG-30" edge="1">
          <mxGeometry relative="1" as="geometry" />
        </mxCell>
        <mxCell id="TKt5UesDh4hAwmA9AJoG-35" value="拥有eventloopthread，负责启动控制eventloopthread，轮询式调度eventloopthread" style="rounded=1;whiteSpace=wrap;html=1;" parent="1" vertex="1">
          <mxGeometry x="2005" y="932" width="120" height="105" as="geometry" />
        </mxCell>
        <mxCell id="TKt5UesDh4hAwmA9AJoG-42" value="Connector" style="swimlane;fontStyle=1;align=center;verticalAlign=top;childLayout=stackLayout;horizontal=1;startSize=26;horizontalStack=0;resizeParent=1;resizeParentMax=0;resizeLast=0;collapsible=1;marginBottom=0;whiteSpace=wrap;html=1;" parent="1" vertex="1">
          <mxGeometry x="1161" y="1405" width="190" height="256" as="geometry" />
        </mxCell>
        <mxCell id="TKt5UesDh4hAwmA9AJoG-43" value="EventLoopThreadPool* pool;&lt;br&gt;int maxLinkNum;&lt;br&gt;Channel* acceptChannel;&lt;br&gt;int listenFd;&lt;br&gt;int port;&lt;br&gt;EventLoop* connetorLoop;" style="text;strokeColor=none;fillColor=none;align=left;verticalAlign=top;spacingLeft=4;spacingRight=4;overflow=hidden;rotatable=0;points=[[0,0.5],[1,0.5]];portConstraint=eastwest;whiteSpace=wrap;html=1;" parent="TKt5UesDh4hAwmA9AJoG-42" vertex="1">
          <mxGeometry y="26" width="190" height="124" as="geometry" />
        </mxCell>
        <mxCell id="TKt5UesDh4hAwmA9AJoG-44" value="" style="line;strokeWidth=1;fillColor=none;align=left;verticalAlign=middle;spacingTop=-1;spacingLeft=3;spacingRight=3;rotatable=0;labelPosition=right;points=[];portConstraint=eastwest;strokeColor=inherit;" parent="TKt5UesDh4hAwmA9AJoG-42" vertex="1">
          <mxGeometry y="150" width="190" height="8" as="geometry" />
        </mxCell>
        <mxCell id="TKt5UesDh4hAwmA9AJoG-45" value="void handleNewConnector();//接受新连接，并分配托管线程和相关资源&lt;br&gt;void started();//启动线程池以及连接循环并分配资源" style="text;strokeColor=none;fillColor=none;align=left;verticalAlign=top;spacingLeft=4;spacingRight=4;overflow=hidden;rotatable=0;points=[[0,0.5],[1,0.5]];portConstraint=eastwest;whiteSpace=wrap;html=1;" parent="TKt5UesDh4hAwmA9AJoG-42" vertex="1">
          <mxGeometry y="158" width="190" height="98" as="geometry" />
        </mxCell>
        <mxCell id="TKt5UesDh4hAwmA9AJoG-46" style="edgeStyle=orthogonalEdgeStyle;rounded=0;orthogonalLoop=1;jettySize=auto;html=1;entryX=0.5;entryY=0;entryDx=0;entryDy=0;" parent="1" source="TKt5UesDh4hAwmA9AJoG-47" target="TKt5UesDh4hAwmA9AJoG-42" edge="1">
          <mxGeometry relative="1" as="geometry" />
        </mxCell>
        <mxCell id="TKt5UesDh4hAwmA9AJoG-47" value="拥有eventLoopthreadpool，&lt;br&gt;ProtocolData,acceptChannel,EventLoop&lt;br&gt;；&lt;br&gt;负责启动整个服务器，建立新连接，并给新连接分配托管eventloopthread,控制服务器并发连接数等" style="rounded=1;whiteSpace=wrap;html=1;" parent="1" vertex="1">
          <mxGeometry x="1147.5" y="1253" width="217" height="105" as="geometry" />
        </mxCell>
        <mxCell id="TKt5UesDh4hAwmA9AJoG-49" value="ServiceDistribitionMergeCenter" style="swimlane;fontStyle=1;align=center;verticalAlign=top;childLayout=stackLayout;horizontal=1;startSize=26;horizontalStack=0;resizeParent=1;resizeParentMax=0;resizeLast=0;collapsible=1;marginBottom=0;whiteSpace=wrap;html=1;" parent="1" vertex="1">
          <mxGeometry y="1491" width="260" height="190" as="geometry" />
        </mxCell>
        <mxCell id="TKt5UesDh4hAwmA9AJoG-50" value="ServiceMediator* mediator;&lt;br&gt;protobuf* dataOBJ;&lt;br&gt;char* sendDataBuf;" style="text;strokeColor=none;fillColor=none;align=left;verticalAlign=top;spacingLeft=4;spacingRight=4;overflow=hidden;rotatable=0;points=[[0,0.5],[1,0.5]];portConstraint=eastwest;whiteSpace=wrap;html=1;" parent="TKt5UesDh4hAwmA9AJoG-49" vertex="1">
          <mxGeometry y="26" width="260" height="44" as="geometry" />
        </mxCell>
        <mxCell id="TKt5UesDh4hAwmA9AJoG-51" value="" style="line;strokeWidth=1;fillColor=none;align=left;verticalAlign=middle;spacingTop=-1;spacingLeft=3;spacingRight=3;rotatable=0;labelPosition=right;points=[];portConstraint=eastwest;strokeColor=inherit;" parent="TKt5UesDh4hAwmA9AJoG-49" vertex="1">
          <mxGeometry y="70" width="260" height="8" as="geometry" />
        </mxCell>
        <mxCell id="TKt5UesDh4hAwmA9AJoG-52" value="void DealData(int fd,char* data int len);&lt;br style=&quot;border-color: var(--border-color);&quot;&gt;void SendData(int fd,char* data,int len);&lt;br&gt;void DeserializationDataToOBJ();//反序列化&lt;br&gt;void ServiceTaskDistribite();//将数据交给对应模块处理&lt;br&gt;void&amp;nbsp;SerializationToBytes();//数据序列化，并调用函数发送数据" style="text;strokeColor=none;fillColor=none;align=left;verticalAlign=top;spacingLeft=4;spacingRight=4;overflow=hidden;rotatable=0;points=[[0,0.5],[1,0.5]];portConstraint=eastwest;whiteSpace=wrap;html=1;" parent="TKt5UesDh4hAwmA9AJoG-49" vertex="1">
          <mxGeometry y="78" width="260" height="112" as="geometry" />
        </mxCell>
        <mxCell id="TKt5UesDh4hAwmA9AJoG-53" style="edgeStyle=orthogonalEdgeStyle;rounded=0;orthogonalLoop=1;jettySize=auto;html=1;entryX=0.5;entryY=0;entryDx=0;entryDy=0;" parent="1" source="TKt5UesDh4hAwmA9AJoG-54" target="TKt5UesDh4hAwmA9AJoG-49" edge="1">
          <mxGeometry relative="1" as="geometry" />
        </mxCell>
        <mxCell id="TKt5UesDh4hAwmA9AJoG-54" value="拥有中介者类，各个服务模块类；&lt;br&gt;负责接收、解析来自下层的业务数据，并进行业务任务分流到各个业务模块处理类" style="rounded=1;whiteSpace=wrap;html=1;" parent="1" vertex="1">
          <mxGeometry x="45" y="1339" width="120" height="105" as="geometry" />
        </mxCell>
        <mxCell id="TKt5UesDh4hAwmA9AJoG-56" value="ServiceMediator" style="swimlane;fontStyle=1;align=center;verticalAlign=top;childLayout=stackLayout;horizontal=1;startSize=26;horizontalStack=0;resizeParent=1;resizeParentMax=0;resizeLast=0;collapsible=1;marginBottom=0;whiteSpace=wrap;html=1;" parent="1" vertex="1">
          <mxGeometry x="540" y="1132" width="290" height="240" as="geometry" />
        </mxCell>
        <mxCell id="TKt5UesDh4hAwmA9AJoG-57" value="ServiceDistribitionMergeCenter* center;&lt;br&gt;unorder_map&amp;lt;int,Channel*&amp;gt;fdToChannel;" style="text;strokeColor=none;fillColor=none;align=left;verticalAlign=top;spacingLeft=4;spacingRight=4;overflow=hidden;rotatable=0;points=[[0,0.5],[1,0.5]];portConstraint=eastwest;whiteSpace=wrap;html=1;" parent="TKt5UesDh4hAwmA9AJoG-56" vertex="1">
          <mxGeometry y="26" width="290" height="74" as="geometry" />
        </mxCell>
        <mxCell id="TKt5UesDh4hAwmA9AJoG-58" value="" style="line;strokeWidth=1;fillColor=none;align=left;verticalAlign=middle;spacingTop=-1;spacingLeft=3;spacingRight=3;rotatable=0;labelPosition=right;points=[];portConstraint=eastwest;strokeColor=inherit;" parent="TKt5UesDh4hAwmA9AJoG-56" vertex="1">
          <mxGeometry y="100" width="290" height="8" as="geometry" />
        </mxCell>
        <mxCell id="TKt5UesDh4hAwmA9AJoG-59" value="void DealData(int fd,char* data int len);&lt;br&gt;void SendData(int fd,char* data,int len);&lt;br&gt;" style="text;strokeColor=none;fillColor=none;align=left;verticalAlign=top;spacingLeft=4;spacingRight=4;overflow=hidden;rotatable=0;points=[[0,0.5],[1,0.5]];portConstraint=eastwest;whiteSpace=wrap;html=1;" parent="TKt5UesDh4hAwmA9AJoG-56" vertex="1">
          <mxGeometry y="108" width="290" height="132" as="geometry" />
        </mxCell>
        <mxCell id="TKt5UesDh4hAwmA9AJoG-60" style="edgeStyle=orthogonalEdgeStyle;rounded=0;orthogonalLoop=1;jettySize=auto;html=1;entryX=0.5;entryY=0;entryDx=0;entryDy=0;" parent="1" source="TKt5UesDh4hAwmA9AJoG-61" target="TKt5UesDh4hAwmA9AJoG-56" edge="1">
          <mxGeometry relative="1" as="geometry" />
        </mxCell>
        <mxCell id="TKt5UesDh4hAwmA9AJoG-61" value="拥有channel，ServiceDistribitionMergeCenter;&lt;br&gt;负责数据的传递（即进行接口隔离）" style="rounded=1;whiteSpace=wrap;html=1;" parent="1" vertex="1">
          <mxGeometry x="592.5" y="980" width="185" height="105" as="geometry" />
        </mxCell>
        <mxCell id="TKt5UesDh4hAwmA9AJoG-63" style="edgeStyle=orthogonalEdgeStyle;rounded=0;orthogonalLoop=1;jettySize=auto;html=1;entryX=0.563;entryY=0.021;entryDx=0;entryDy=0;entryPerimeter=0;" parent="1" source="TKt5UesDh4hAwmA9AJoG-62" target="TKt5UesDh4hAwmA9AJoG-1" edge="1">
          <mxGeometry relative="1" as="geometry" />
        </mxCell>
        <mxCell id="TKt5UesDh4hAwmA9AJoG-62" value="拥有ServiceMediator以及下方的资源；&lt;br&gt;负责接收数据，解析底层协议，维护连接稳定性，将业务数据传递给业务中介者" style="rounded=1;whiteSpace=wrap;html=1;" parent="1" vertex="1">
          <mxGeometry x="170" y="256" width="120" height="100" as="geometry" />
        </mxCell>
        <mxCell id="L9cpO9jpiSc21Cesm8Ux-3" value="1" style="endArrow=open;html=1;endSize=12;startArrow=diamondThin;startSize=14;startFill=0;edgeStyle=orthogonalEdgeStyle;align=left;verticalAlign=bottom;rounded=0;" parent="1" source="TKt5UesDh4hAwmA9AJoG-13" target="TKt5UesDh4hAwmA9AJoG-6" edge="1">
          <mxGeometry x="-1" y="3" relative="1" as="geometry">
            <mxPoint x="790" y="-154" as="sourcePoint" />
            <mxPoint x="950" y="-154" as="targetPoint" />
          </mxGeometry>
        </mxCell>
        <mxCell id="L9cpO9jpiSc21Cesm8Ux-4" value="n:1" style="edgeLabel;html=1;align=center;verticalAlign=middle;resizable=0;points=[];" parent="L9cpO9jpiSc21Cesm8Ux-3" vertex="1" connectable="0">
          <mxGeometry x="0.1716" y="1" relative="1" as="geometry">
            <mxPoint y="1" as="offset" />
          </mxGeometry>
        </mxCell>
        <mxCell id="L9cpO9jpiSc21Cesm8Ux-5" value="1" style="endArrow=open;html=1;endSize=12;startArrow=diamondThin;startSize=14;startFill=0;edgeStyle=orthogonalEdgeStyle;align=left;verticalAlign=bottom;rounded=0;entryX=1;entryY=0.222;entryDx=0;entryDy=0;entryPerimeter=0;exitX=0;exitY=0.5;exitDx=0;exitDy=0;" parent="1" source="TKt5UesDh4hAwmA9AJoG-19" target="TKt5UesDh4hAwmA9AJoG-13" edge="1">
          <mxGeometry x="-1" y="3" relative="1" as="geometry">
            <mxPoint x="1230" y="-140" as="sourcePoint" />
            <mxPoint x="1390" y="-140" as="targetPoint" />
          </mxGeometry>
        </mxCell>
        <mxCell id="L9cpO9jpiSc21Cesm8Ux-6" value="1" style="endArrow=open;html=1;endSize=12;startArrow=diamondThin;startSize=14;startFill=0;edgeStyle=orthogonalEdgeStyle;align=left;verticalAlign=bottom;rounded=0;entryX=1;entryY=0.5;entryDx=0;entryDy=0;exitX=0;exitY=0.5;exitDx=0;exitDy=0;" parent="1" source="TKt5UesDh4hAwmA9AJoG-21" target="TKt5UesDh4hAwmA9AJoG-8" edge="1">
          <mxGeometry x="-1" y="3" relative="1" as="geometry">
            <mxPoint x="1290" y="-80" as="sourcePoint" />
            <mxPoint x="1450" y="-80" as="targetPoint" />
          </mxGeometry>
        </mxCell>
        <mxCell id="L9cpO9jpiSc21Cesm8Ux-7" value="1" style="endArrow=open;html=1;endSize=12;startArrow=diamondThin;startSize=14;startFill=0;edgeStyle=orthogonalEdgeStyle;align=left;verticalAlign=bottom;rounded=0;entryX=1.013;entryY=0.769;entryDx=0;entryDy=0;entryPerimeter=0;exitX=0;exitY=0.5;exitDx=0;exitDy=0;" parent="1" source="TKt5UesDh4hAwmA9AJoG-27" target="TKt5UesDh4hAwmA9AJoG-19" edge="1">
          <mxGeometry x="-1" y="3" relative="1" as="geometry">
            <mxPoint x="1530" y="190" as="sourcePoint" />
            <mxPoint x="1690" y="190" as="targetPoint" />
          </mxGeometry>
        </mxCell>
        <mxCell id="L9cpO9jpiSc21Cesm8Ux-12" value="Thread" style="swimlane;fontStyle=1;align=center;verticalAlign=top;childLayout=stackLayout;horizontal=1;startSize=26;horizontalStack=0;resizeParent=1;resizeParentMax=0;resizeLast=0;collapsible=1;marginBottom=0;whiteSpace=wrap;html=1;" parent="1" vertex="1">
          <mxGeometry x="1920" y="618" width="210" height="210" as="geometry" />
        </mxCell>
        <mxCell id="L9cpO9jpiSc21Cesm8Ux-13" value="pthread_t pid;&lt;br&gt;callback func;&lt;br&gt;bool started;&lt;br&gt;bool joined;" style="text;strokeColor=none;fillColor=none;align=left;verticalAlign=top;spacingLeft=4;spacingRight=4;overflow=hidden;rotatable=0;points=[[0,0.5],[1,0.5]];portConstraint=eastwest;whiteSpace=wrap;html=1;" parent="L9cpO9jpiSc21Cesm8Ux-12" vertex="1">
          <mxGeometry y="26" width="210" height="84" as="geometry" />
        </mxCell>
        <mxCell id="L9cpO9jpiSc21Cesm8Ux-14" value="" style="line;strokeWidth=1;fillColor=none;align=left;verticalAlign=middle;spacingTop=-1;spacingLeft=3;spacingRight=3;rotatable=0;labelPosition=right;points=[];portConstraint=eastwest;strokeColor=inherit;" parent="L9cpO9jpiSc21Cesm8Ux-12" vertex="1">
          <mxGeometry y="110" width="210" height="8" as="geometry" />
        </mxCell>
        <mxCell id="L9cpO9jpiSc21Cesm8Ux-15" value="void start();&lt;br&gt;void join();&lt;br&gt;pthread_t getPid();&lt;br&gt;bool started();&lt;br&gt;bool joined();" style="text;strokeColor=none;fillColor=none;align=left;verticalAlign=top;spacingLeft=4;spacingRight=4;overflow=hidden;rotatable=0;points=[[0,0.5],[1,0.5]];portConstraint=eastwest;whiteSpace=wrap;html=1;" parent="L9cpO9jpiSc21Cesm8Ux-12" vertex="1">
          <mxGeometry y="118" width="210" height="92" as="geometry" />
        </mxCell>
        <mxCell id="L9cpO9jpiSc21Cesm8Ux-16" style="edgeStyle=orthogonalEdgeStyle;rounded=0;orthogonalLoop=1;jettySize=auto;html=1;entryX=0.5;entryY=0;entryDx=0;entryDy=0;" parent="1" source="L9cpO9jpiSc21Cesm8Ux-17" target="L9cpO9jpiSc21Cesm8Ux-12" edge="1">
          <mxGeometry relative="1" as="geometry" />
        </mxCell>
        <mxCell id="L9cpO9jpiSc21Cesm8Ux-17" value="拥有线程循环函数;&lt;br&gt;负责执行事件循环" style="rounded=1;whiteSpace=wrap;html=1;" parent="1" vertex="1">
          <mxGeometry x="1965" y="466" width="120" height="105" as="geometry" />
        </mxCell>
        <mxCell id="L9cpO9jpiSc21Cesm8Ux-18" value="1" style="endArrow=open;html=1;endSize=12;startArrow=diamondThin;startSize=14;startFill=0;edgeStyle=orthogonalEdgeStyle;align=left;verticalAlign=bottom;rounded=0;exitX=0.463;exitY=1.077;exitDx=0;exitDy=0;exitPerimeter=0;entryX=0;entryY=0;entryDx=0;entryDy=0;entryPerimeter=0;" parent="1" source="TKt5UesDh4hAwmA9AJoG-27" target="L9cpO9jpiSc21Cesm8Ux-14" edge="1">
          <mxGeometry x="-1" y="3" relative="1" as="geometry">
            <mxPoint x="1730" y="480" as="sourcePoint" />
            <mxPoint x="1890" y="480" as="targetPoint" />
            <Array as="points">
              <mxPoint x="1774" y="340" />
              <mxPoint x="1690" y="340" />
              <mxPoint x="1690" y="680" />
              <mxPoint x="1920" y="680" />
            </Array>
          </mxGeometry>
        </mxCell>
        <mxCell id="L9cpO9jpiSc21Cesm8Ux-19" value="1" style="endArrow=open;html=1;endSize=12;startArrow=diamondThin;startSize=14;startFill=0;edgeStyle=orthogonalEdgeStyle;align=left;verticalAlign=bottom;rounded=0;entryX=0.875;entryY=0.022;entryDx=0;entryDy=0;entryPerimeter=0;exitX=0;exitY=0.5;exitDx=0;exitDy=0;" parent="1" source="TKt5UesDh4hAwmA9AJoG-57" target="TKt5UesDh4hAwmA9AJoG-49" edge="1">
          <mxGeometry x="-1" y="3" relative="1" as="geometry">
            <mxPoint x="320" y="1369" as="sourcePoint" />
            <mxPoint x="480" y="1369" as="targetPoint" />
          </mxGeometry>
        </mxCell>
        <mxCell id="L9cpO9jpiSc21Cesm8Ux-20" value="1" style="endArrow=open;html=1;endSize=12;startArrow=diamondThin;startSize=14;startFill=0;edgeStyle=orthogonalEdgeStyle;align=left;verticalAlign=bottom;rounded=0;" parent="1" edge="1">
          <mxGeometry x="-1" y="3" relative="1" as="geometry">
            <mxPoint x="260" y="1540" as="sourcePoint" />
            <mxPoint x="650" y="1369" as="targetPoint" />
          </mxGeometry>
        </mxCell>
        <mxCell id="L9cpO9jpiSc21Cesm8Ux-21" value="1" style="endArrow=open;html=1;endSize=12;startArrow=diamondThin;startSize=14;startFill=0;edgeStyle=orthogonalEdgeStyle;align=left;verticalAlign=bottom;rounded=0;entryX=0.455;entryY=1.088;entryDx=0;entryDy=0;entryPerimeter=0;exitX=1;exitY=0.5;exitDx=0;exitDy=0;" parent="1" source="TKt5UesDh4hAwmA9AJoG-43" target="TKt5UesDh4hAwmA9AJoG-33" edge="1">
          <mxGeometry x="-0.9643" y="-10" relative="1" as="geometry">
            <mxPoint x="1770" y="1569" as="sourcePoint" />
            <mxPoint x="1310" y="1469" as="targetPoint" />
            <Array as="points">
              <mxPoint x="1351" y="1380" />
              <mxPoint x="1350" y="1380" />
              <mxPoint x="1350" y="1384" />
              <mxPoint x="2054" y="1384" />
            </Array>
            <mxPoint as="offset" />
          </mxGeometry>
        </mxCell>
        <mxCell id="L9cpO9jpiSc21Cesm8Ux-25" value="1" style="endArrow=open;html=1;endSize=12;startArrow=diamondThin;startSize=14;startFill=0;edgeStyle=orthogonalEdgeStyle;align=left;verticalAlign=bottom;rounded=0;" parent="1" edge="1">
          <mxGeometry x="-1" y="3" relative="1" as="geometry">
            <mxPoint x="1160" y="1579" as="sourcePoint" />
            <mxPoint x="290" y="730" as="targetPoint" />
            <Array as="points">
              <mxPoint x="1010" y="1584" />
              <mxPoint x="1010" y="730" />
            </Array>
          </mxGeometry>
        </mxCell>
        <mxCell id="L9cpO9jpiSc21Cesm8Ux-27" value="1" style="endArrow=open;html=1;endSize=12;startArrow=diamondThin;startSize=14;startFill=0;edgeStyle=orthogonalEdgeStyle;align=left;verticalAlign=bottom;rounded=0;entryX=1;entryY=0.907;entryDx=0;entryDy=0;entryPerimeter=0;exitX=1;exitY=1.187;exitDx=0;exitDy=0;exitPerimeter=0;" parent="1" source="TKt5UesDh4hAwmA9AJoG-31" target="TKt5UesDh4hAwmA9AJoG-25" edge="1">
          <mxGeometry x="-1" y="3" relative="1" as="geometry">
            <mxPoint x="2170" y="1125" as="sourcePoint" />
            <mxPoint x="1940.0000000000005" y="270" as="targetPoint" />
            <Array as="points">
              <mxPoint x="2260" y="1140" />
              <mxPoint x="2260" y="270" />
              <mxPoint x="2170" y="270" />
              <mxPoint x="2170" y="276" />
            </Array>
          </mxGeometry>
        </mxCell>
        <mxCell id="L9cpO9jpiSc21Cesm8Ux-28" value="1" style="endArrow=open;html=1;endSize=12;startArrow=diamondThin;startSize=14;startFill=0;edgeStyle=orthogonalEdgeStyle;align=left;verticalAlign=bottom;rounded=0;" parent="1" edge="1">
          <mxGeometry x="-1" y="3" relative="1" as="geometry">
            <mxPoint x="1351" y="1529" as="sourcePoint" />
            <mxPoint x="1520" y="-130" as="targetPoint" />
            <Array as="points">
              <mxPoint x="1351" y="-89" />
            </Array>
          </mxGeometry>
        </mxCell>
        <mxCell id="L9cpO9jpiSc21Cesm8Ux-29" value="MutexLock" style="swimlane;fontStyle=1;align=center;verticalAlign=top;childLayout=stackLayout;horizontal=1;startSize=26;horizontalStack=0;resizeParent=1;resizeParentMax=0;resizeLast=0;collapsible=1;marginBottom=0;whiteSpace=wrap;html=1;" parent="1" vertex="1">
          <mxGeometry x="1920" y="-448" width="270" height="308" as="geometry" />
        </mxCell>
        <mxCell id="L9cpO9jpiSc21Cesm8Ux-30" value="+ field: type" style="text;strokeColor=none;fillColor=none;align=left;verticalAlign=top;spacingLeft=4;spacingRight=4;overflow=hidden;rotatable=0;points=[[0,0.5],[1,0.5]];portConstraint=eastwest;whiteSpace=wrap;html=1;" parent="L9cpO9jpiSc21Cesm8Ux-29" vertex="1">
          <mxGeometry y="26" width="270" height="104" as="geometry" />
        </mxCell>
        <mxCell id="L9cpO9jpiSc21Cesm8Ux-31" value="" style="line;strokeWidth=1;fillColor=none;align=left;verticalAlign=middle;spacingTop=-1;spacingLeft=3;spacingRight=3;rotatable=0;labelPosition=right;points=[];portConstraint=eastwest;strokeColor=inherit;" parent="L9cpO9jpiSc21Cesm8Ux-29" vertex="1">
          <mxGeometry y="130" width="270" height="8" as="geometry" />
        </mxCell>
        <mxCell id="L9cpO9jpiSc21Cesm8Ux-32" value="+ method(type): type" style="text;strokeColor=none;fillColor=none;align=left;verticalAlign=top;spacingLeft=4;spacingRight=4;overflow=hidden;rotatable=0;points=[[0,0.5],[1,0.5]];portConstraint=eastwest;whiteSpace=wrap;html=1;" parent="L9cpO9jpiSc21Cesm8Ux-29" vertex="1">
          <mxGeometry y="138" width="270" height="170" as="geometry" />
        </mxCell>
        <mxCell id="L9cpO9jpiSc21Cesm8Ux-35" value="1" style="endArrow=open;html=1;endSize=12;startArrow=diamondThin;startSize=14;startFill=0;edgeStyle=orthogonalEdgeStyle;align=left;verticalAlign=bottom;rounded=0;exitX=1.016;exitY=0.273;exitDx=0;exitDy=0;exitPerimeter=0;" parent="1" source="TKt5UesDh4hAwmA9AJoG-19" edge="1">
          <mxGeometry x="-1" y="3" relative="1" as="geometry">
            <mxPoint x="1760" y="-360" as="sourcePoint" />
            <mxPoint x="1920" y="-360" as="targetPoint" />
            <Array as="points">
              <mxPoint x="1623" y="-360" />
            </Array>
          </mxGeometry>
        </mxCell>
        <mxCell id="L9cpO9jpiSc21Cesm8Ux-48" value="ConditionVar" style="swimlane;fontStyle=1;align=center;verticalAlign=top;childLayout=stackLayout;horizontal=1;startSize=26;horizontalStack=0;resizeParent=1;resizeParentMax=0;resizeLast=0;collapsible=1;marginBottom=0;whiteSpace=wrap;html=1;" parent="1" vertex="1">
          <mxGeometry x="2340" y="-738" width="270" height="308" as="geometry" />
        </mxCell>
        <mxCell id="L9cpO9jpiSc21Cesm8Ux-49" value="+ field: type" style="text;strokeColor=none;fillColor=none;align=left;verticalAlign=top;spacingLeft=4;spacingRight=4;overflow=hidden;rotatable=0;points=[[0,0.5],[1,0.5]];portConstraint=eastwest;whiteSpace=wrap;html=1;" parent="L9cpO9jpiSc21Cesm8Ux-48" vertex="1">
          <mxGeometry y="26" width="270" height="104" as="geometry" />
        </mxCell>
        <mxCell id="L9cpO9jpiSc21Cesm8Ux-62" value="1" style="endArrow=open;html=1;endSize=12;startArrow=diamondThin;startSize=14;startFill=0;edgeStyle=orthogonalEdgeStyle;align=left;verticalAlign=bottom;rounded=0;entryX=0.963;entryY=0.596;entryDx=0;entryDy=0;entryPerimeter=0;" parent="L9cpO9jpiSc21Cesm8Ux-48" target="L9cpO9jpiSc21Cesm8Ux-30" edge="1">
          <mxGeometry x="-1" y="3" relative="1" as="geometry">
            <mxPoint x="8" y="91" as="sourcePoint" />
            <mxPoint x="168" y="91" as="targetPoint" />
          </mxGeometry>
        </mxCell>
        <mxCell id="L9cpO9jpiSc21Cesm8Ux-50" value="" style="line;strokeWidth=1;fillColor=none;align=left;verticalAlign=middle;spacingTop=-1;spacingLeft=3;spacingRight=3;rotatable=0;labelPosition=right;points=[];portConstraint=eastwest;strokeColor=inherit;" parent="L9cpO9jpiSc21Cesm8Ux-48" vertex="1">
          <mxGeometry y="130" width="270" height="8" as="geometry" />
        </mxCell>
        <mxCell id="L9cpO9jpiSc21Cesm8Ux-51" value="+ method(type): type" style="text;strokeColor=none;fillColor=none;align=left;verticalAlign=top;spacingLeft=4;spacingRight=4;overflow=hidden;rotatable=0;points=[[0,0.5],[1,0.5]];portConstraint=eastwest;whiteSpace=wrap;html=1;" parent="L9cpO9jpiSc21Cesm8Ux-48" vertex="1">
          <mxGeometry y="138" width="270" height="170" as="geometry" />
        </mxCell>
        <mxCell id="L9cpO9jpiSc21Cesm8Ux-54" value="LockGuard" style="swimlane;fontStyle=1;align=center;verticalAlign=top;childLayout=stackLayout;horizontal=1;startSize=26;horizontalStack=0;resizeParent=1;resizeParentMax=0;resizeLast=0;collapsible=1;marginBottom=0;whiteSpace=wrap;html=1;" parent="1" vertex="1">
          <mxGeometry x="2410" y="-158" width="270" height="308" as="geometry" />
        </mxCell>
        <mxCell id="L9cpO9jpiSc21Cesm8Ux-55" value="+ field: type" style="text;strokeColor=none;fillColor=none;align=left;verticalAlign=top;spacingLeft=4;spacingRight=4;overflow=hidden;rotatable=0;points=[[0,0.5],[1,0.5]];portConstraint=eastwest;whiteSpace=wrap;html=1;" parent="L9cpO9jpiSc21Cesm8Ux-54" vertex="1">
          <mxGeometry y="26" width="270" height="104" as="geometry" />
        </mxCell>
        <mxCell id="L9cpO9jpiSc21Cesm8Ux-63" value="1" style="endArrow=open;html=1;endSize=12;startArrow=diamondThin;startSize=14;startFill=0;edgeStyle=orthogonalEdgeStyle;align=left;verticalAlign=bottom;rounded=0;entryX=1.018;entryY=0.758;entryDx=0;entryDy=0;entryPerimeter=0;" parent="L9cpO9jpiSc21Cesm8Ux-54" target="L9cpO9jpiSc21Cesm8Ux-30" edge="1">
          <mxGeometry x="-1" y="3" relative="1" as="geometry">
            <mxPoint y="88" as="sourcePoint" />
            <mxPoint x="160" y="88" as="targetPoint" />
          </mxGeometry>
        </mxCell>
        <mxCell id="L9cpO9jpiSc21Cesm8Ux-56" value="" style="line;strokeWidth=1;fillColor=none;align=left;verticalAlign=middle;spacingTop=-1;spacingLeft=3;spacingRight=3;rotatable=0;labelPosition=right;points=[];portConstraint=eastwest;strokeColor=inherit;" parent="L9cpO9jpiSc21Cesm8Ux-54" vertex="1">
          <mxGeometry y="130" width="270" height="8" as="geometry" />
        </mxCell>
        <mxCell id="L9cpO9jpiSc21Cesm8Ux-57" value="+ method(type): type" style="text;strokeColor=none;fillColor=none;align=left;verticalAlign=top;spacingLeft=4;spacingRight=4;overflow=hidden;rotatable=0;points=[[0,0.5],[1,0.5]];portConstraint=eastwest;whiteSpace=wrap;html=1;" parent="L9cpO9jpiSc21Cesm8Ux-54" vertex="1">
          <mxGeometry y="138" width="270" height="170" as="geometry" />
        </mxCell>
        <mxCell id="L9cpO9jpiSc21Cesm8Ux-64" value="1" style="endArrow=open;html=1;endSize=12;startArrow=diamondThin;startSize=14;startFill=0;edgeStyle=orthogonalEdgeStyle;align=left;verticalAlign=bottom;rounded=0;" parent="1" target="TKt5UesDh4hAwmA9AJoG-2" edge="1">
          <mxGeometry x="-1" y="3" relative="1" as="geometry">
            <mxPoint x="830" y="1190" as="sourcePoint" />
            <mxPoint x="990" y="1190" as="targetPoint" />
          </mxGeometry>
        </mxCell>
        <mxCell id="OdPcz2F9PM3Q8Fgmywdo-1" value="1" style="endArrow=open;html=1;endSize=12;startArrow=diamondThin;startSize=14;startFill=0;edgeStyle=orthogonalEdgeStyle;align=left;verticalAlign=bottom;rounded=0;entryX=0.505;entryY=1.01;entryDx=0;entryDy=0;entryPerimeter=0;" edge="1" parent="1" target="TKt5UesDh4hAwmA9AJoG-8">
          <mxGeometry x="-1" y="3" relative="1" as="geometry">
            <mxPoint x="370" y="510" as="sourcePoint" />
            <mxPoint x="530" y="510" as="targetPoint" />
            <Array as="points">
              <mxPoint x="514" y="510" />
            </Array>
          </mxGeometry>
        </mxCell>
        <mxCell id="OdPcz2F9PM3Q8Fgmywdo-2" value="1" style="endArrow=open;html=1;endSize=12;startArrow=diamondThin;startSize=14;startFill=0;edgeStyle=orthogonalEdgeStyle;align=left;verticalAlign=bottom;rounded=0;exitX=0.005;exitY=0.402;exitDx=0;exitDy=0;exitPerimeter=0;entryX=0.091;entryY=-0.002;entryDx=0;entryDy=0;entryPerimeter=0;" edge="1" parent="1" source="TKt5UesDh4hAwmA9AJoG-8" target="TKt5UesDh4hAwmA9AJoG-1">
          <mxGeometry x="-1" y="3" relative="1" as="geometry">
            <mxPoint x="150" y="110" as="sourcePoint" />
            <mxPoint x="100" y="540" as="targetPoint" />
          </mxGeometry>
        </mxCell>
        <mxCell id="OdPcz2F9PM3Q8Fgmywdo-3" value="1" style="endArrow=open;html=1;endSize=12;startArrow=diamondThin;startSize=14;startFill=0;edgeStyle=orthogonalEdgeStyle;align=left;verticalAlign=bottom;rounded=0;entryX=0.1;entryY=0.008;entryDx=0;entryDy=0;entryPerimeter=0;" edge="1" parent="1" target="TKt5UesDh4hAwmA9AJoG-56">
          <mxGeometry x="-1" y="3" relative="1" as="geometry">
            <mxPoint x="370" y="650.5" as="sourcePoint" />
            <mxPoint x="530" y="650.5" as="targetPoint" />
          </mxGeometry>
        </mxCell>
        <mxCell id="OdPcz2F9PM3Q8Fgmywdo-4" value="LoginService" style="swimlane;childLayout=stackLayout;horizontal=1;startSize=50;horizontalStack=0;rounded=1;fontSize=14;fontStyle=0;strokeWidth=2;resizeParent=0;resizeLast=1;shadow=0;dashed=0;align=center;arcSize=4;whiteSpace=wrap;html=1;" vertex="1" parent="1">
          <mxGeometry x="500" y="2010" width="160" height="120" as="geometry" />
        </mxCell>
        <mxCell id="OdPcz2F9PM3Q8Fgmywdo-5" value="+Attribute1&#xa;+Attribute2&#xa;+Attribute3" style="align=left;strokeColor=none;fillColor=none;spacingLeft=4;fontSize=12;verticalAlign=top;resizable=0;rotatable=0;part=1;html=1;" vertex="1" parent="OdPcz2F9PM3Q8Fgmywdo-4">
          <mxGeometry y="50" width="160" height="70" as="geometry" />
        </mxCell>
        <mxCell id="OdPcz2F9PM3Q8Fgmywdo-6" value="ChatServie" style="swimlane;childLayout=stackLayout;horizontal=1;startSize=50;horizontalStack=0;rounded=1;fontSize=14;fontStyle=0;strokeWidth=2;resizeParent=0;resizeLast=1;shadow=0;dashed=0;align=center;arcSize=4;whiteSpace=wrap;html=1;" vertex="1" parent="1">
          <mxGeometry x="777.5" y="2010" width="262.5" height="120" as="geometry" />
        </mxCell>
        <mxCell id="OdPcz2F9PM3Q8Fgmywdo-7" value="包括单聊，群聊，音频通话以及后面的权限管理" style="align=left;strokeColor=none;fillColor=none;spacingLeft=4;fontSize=12;verticalAlign=top;resizable=0;rotatable=0;part=1;html=1;" vertex="1" parent="OdPcz2F9PM3Q8Fgmywdo-6">
          <mxGeometry y="50" width="262.5" height="70" as="geometry" />
        </mxCell>
        <mxCell id="OdPcz2F9PM3Q8Fgmywdo-10" value="AudioVideoBase" style="swimlane;childLayout=stackLayout;horizontal=1;startSize=50;horizontalStack=0;rounded=1;fontSize=14;fontStyle=0;strokeWidth=2;resizeParent=0;resizeLast=1;shadow=0;dashed=0;align=center;arcSize=4;whiteSpace=wrap;html=1;" vertex="1" parent="1">
          <mxGeometry x="803.75" y="2240" width="160" height="120" as="geometry" />
        </mxCell>
        <mxCell id="OdPcz2F9PM3Q8Fgmywdo-11" value="音视频底层处理" style="align=left;strokeColor=none;fillColor=none;spacingLeft=4;fontSize=12;verticalAlign=top;resizable=0;rotatable=0;part=1;html=1;" vertex="1" parent="OdPcz2F9PM3Q8Fgmywdo-10">
          <mxGeometry y="50" width="160" height="70" as="geometry" />
        </mxCell>
      </root>
    </mxGraphModel>
  </diagram>
</mxfile>
